<?xml version="1.0" encoding="UTF-8"?><svg id="_лой_2" xmlns="http://www.w3.org/2000/svg" viewBox="0 0 133 92.75"><defs><style>.cls-1{isolation:isolate;}</style></defs><g id="_лой_1-2"><g><path d="M28.06,52.65c-4.57-1.09-7.81-5.15-7.84-9.85,.06-4.49,3.33-8.47,6.45-9.1,.33-.06,1.95-.17,5.33-.37,2.22-.15,2.66-.16,3.28-.51,1.06-.6,2.47-2,4-5.27,1.84-4,2-3.81,2.49-4.11,1.15-.68,2.56-.76,3.78-.22,1.75,.47,2,1.22,3.54,1.76,1.91,.57,3.96,.48,5.81-.25,4-1.19,25.58-7.23,55.24-15.67,1.13-.65,2.45-.91,3.74-.73,1.9,.36,3.53,1.57,4.42,3.29l4.8,.38v-2.93l-4.22-4.61v-1.81l-12.29,3.58c-.64,.89-1.49,1.61-2.47,2.1-.6,.3-1.25,.5-1.91,.6l-46.68,12.84c-1,.22-2.43,.38-3.12-.41-.53-.6-.3-1.43,0-4s.47-4.07,.17-4.84c-.83-1.62-2.39-2.73-4.19-3-1.47-.27-3,0-6.07,1.8-5.74,3.32-5.44,5.21-8.78,6.48-2.7,1-5.35,.58-10.67-.32s-5.83-2-9.51-2c-2.17,0-5.92,0-8.95,2.38S.67,23.86,.31,25.73c-2.56,13.55,11.45,24.87,12.8,25.93,3.53,2.78,6,3.47,8.21,3.45,2.45-.08,4.81-.94,6.74-2.46Z"/><circle cx="110.17" cy="3.97" r="1.32"/><circle cx="114.32" cy="2.64" r="1.32"/><circle cx="118.37" cy="1.32" r="1.32"/><g class="cls-1"><path d="M38.1,43.36h5.48v6.04c-.73,.68-1.61,1.21-2.62,1.58s-2.06,.56-3.14,.56c-1.13,0-2.12-.18-2.97-.54-.85-.36-1.55-.87-2.11-1.52s-.98-1.44-1.26-2.37c-.28-.93-.42-1.95-.42-3.07s.15-2.2,.46-3.12,.74-1.71,1.31-2.36c.57-.65,1.26-1.15,2.07-1.5s1.72-.52,2.72-.52c.92,0,1.71,.11,2.37,.34,.66,.23,1.22,.54,1.68,.94,.46,.4,.83,.87,1.1,1.4,.27,.53,.47,1.11,.59,1.72l-2.96,.38c-.08-.36-.18-.68-.29-.95s-.28-.51-.49-.7c-.21-.19-.48-.34-.8-.44-.32-.1-.72-.15-1.2-.15-1.16,0-2.03,.43-2.6,1.3-.57,.87-.86,2.09-.86,3.66s.29,2.81,.87,3.67c.58,.86,1.52,1.29,2.83,1.29,.63,0,1.17-.06,1.63-.19,.46-.13,.9-.32,1.33-.59v-2.38h-2.72v-2.48Z"/><path d="M46.76,36.9h2.98v8.5c0,1.21,.21,2.11,.64,2.7s1.14,.88,2.14,.88,1.71-.29,2.13-.88c.42-.59,.63-1.49,.63-2.7v-8.5h2.98v8.5c0,1.08-.13,2.01-.4,2.78s-.65,1.41-1.14,1.91c-.49,.5-1.1,.87-1.81,1.1-.71,.23-1.52,.35-2.41,.35s-1.72-.12-2.43-.36c-.71-.24-1.32-.61-1.81-1.11-.49-.5-.87-1.14-1.12-1.93-.25-.79-.38-1.72-.38-2.8v-8.44Z"/><path d="M61.9,36.9h2.98v14.28h-2.98v-14.28Z"/></g><g class="cls-1"><path d="M72.1,39.48h-4.3v-2.58h11.6v2.58h-4.3v11.7h-3v-11.7Z"/></g><g class="cls-1"><path d="M84.48,36.9h2.84l5.36,14.28h-3.2l-1.14-3.3h-5l-1.14,3.3h-3.08l5.36-14.28Zm3.08,8.52l-1.74-5.12-1.72,5.12h3.46Z"/><path d="M95.34,36.9h5.06c1.12,0,2.04,.13,2.77,.39,.73,.26,1.3,.6,1.71,1.02,.41,.42,.7,.89,.86,1.4,.16,.51,.24,1.02,.24,1.51,0,.92-.17,1.69-.5,2.32s-.89,1.15-1.68,1.58l2.9,6.06h-3.22l-2.4-5.36h-2.8v5.36h-2.94v-14.28Zm5.26,6.44c.47,0,.85-.05,1.16-.15,.31-.1,.55-.24,.73-.42,.18-.18,.3-.4,.37-.65,.07-.25,.1-.53,.1-.84,0-.25-.04-.5-.12-.73s-.22-.44-.41-.62-.46-.32-.8-.42-.77-.15-1.29-.15h-2.06v3.98h2.32Z"/></g><g class="cls-1"><path d="M49.4,65.98c.16,1,.56,1.72,1.19,2.17,.63,.45,1.58,.67,2.83,.67,.63,0,1.15-.07,1.57-.21,.42-.14,.76-.33,1.01-.56,.25-.23,.43-.51,.54-.82,.11-.31,.16-.64,.16-.99,0-.28-.03-.55-.1-.81-.07-.26-.2-.5-.39-.71-.19-.21-.46-.4-.8-.56-.34-.16-.78-.29-1.31-.38l-1.8-.32c-.71-.12-1.33-.28-1.88-.48-.55-.2-1.01-.46-1.39-.77s-.67-.7-.86-1.17c-.19-.47-.29-1.03-.29-1.7s.14-1.23,.41-1.72,.64-.91,1.11-1.24c.47-.33,1.02-.58,1.66-.74,.64-.16,1.33-.24,2.08-.24,.95,0,1.74,.1,2.37,.31,.63,.21,1.15,.48,1.55,.83,.4,.35,.7,.74,.91,1.19,.21,.45,.36,.9,.47,1.37l-1.72,.34c-.11-.4-.24-.76-.41-1.07-.17-.31-.39-.57-.66-.78-.27-.21-.61-.36-1.01-.47s-.89-.16-1.46-.16c-.65,0-1.2,.06-1.64,.18-.44,.12-.79,.28-1.06,.49-.27,.21-.46,.45-.57,.74s-.17,.59-.17,.91c0,.35,.04,.65,.13,.91,.09,.26,.23,.49,.44,.68s.48,.35,.81,.48c.33,.13,.75,.24,1.24,.33l2,.36c1.48,.28,2.57,.74,3.26,1.39,.69,.65,1.04,1.6,1.04,2.85,0,.57-.11,1.11-.33,1.61-.22,.5-.55,.94-.98,1.31s-.98,.67-1.63,.88-1.42,.32-2.3,.32-1.6-.08-2.29-.25c-.69-.17-1.28-.43-1.79-.79-.51-.36-.91-.82-1.22-1.38-.31-.56-.49-1.23-.56-2h1.84Z"/></g><g class="cls-1"><path d="M73.48,65.34c-.08,.72-.26,1.39-.54,2.01-.28,.62-.66,1.16-1.14,1.61-.48,.45-1.06,.81-1.75,1.06-.69,.25-1.48,.38-2.39,.38-.99,0-1.87-.17-2.66-.5s-1.45-.82-2-1.46c-.55-.64-.97-1.42-1.27-2.35-.3-.93-.45-1.98-.45-3.17s.16-2.27,.48-3.2c.32-.93,.77-1.72,1.34-2.36,.57-.64,1.25-1.13,2.03-1.46,.78-.33,1.62-.5,2.53-.5s1.64,.11,2.28,.34,1.18,.55,1.63,.96,.81,.91,1.08,1.48c.27,.57,.48,1.21,.63,1.9l-1.8,.3c-.12-.52-.28-.99-.47-1.41-.19-.42-.44-.78-.74-1.07-.3-.29-.66-.52-1.08-.67s-.93-.23-1.53-.23c-.71,0-1.34,.14-1.89,.43-.55,.29-1.02,.69-1.4,1.2-.38,.51-.67,1.13-.87,1.86-.2,.73-.3,1.53-.3,2.41s.1,1.68,.3,2.41c.2,.73,.49,1.35,.87,1.87,.38,.52,.85,.92,1.4,1.2s1.19,.42,1.91,.42c.65,0,1.21-.08,1.67-.25,.46-.17,.84-.4,1.14-.71s.54-.67,.71-1.1c.17-.43,.3-.89,.38-1.4h1.9Z"/><path d="M76.76,55.76h1.84v6.04h7.22v-6.04h1.84v14.28h-1.84v-6.52h-7.22v6.52h-1.84v-14.28Z"/><path d="M97.68,70.4c-.97,0-1.86-.16-2.67-.49-.81-.33-1.5-.81-2.08-1.44-.58-.63-1.03-1.42-1.35-2.35-.32-.93-.48-2-.48-3.2s.16-2.27,.49-3.2c.33-.93,.78-1.72,1.36-2.36,.58-.64,1.27-1.13,2.08-1.46s1.69-.5,2.65-.5,1.86,.16,2.67,.49c.81,.33,1.5,.81,2.07,1.44,.57,.63,1.02,1.41,1.34,2.34,.32,.93,.48,1.99,.48,3.19s-.16,2.27-.47,3.21c-.31,.94-.76,1.73-1.33,2.37-.57,.64-1.26,1.13-2.07,1.46s-1.7,.5-2.69,.5Zm0-1.6c.76,0,1.43-.14,2.01-.42s1.06-.68,1.45-1.19c.39-.51,.68-1.13,.88-1.86s.3-1.54,.3-2.43-.1-1.68-.3-2.41-.5-1.35-.89-1.87c-.39-.52-.88-.92-1.45-1.2-.57-.28-1.24-.42-2-.42s-1.45,.14-2.03,.42-1.07,.68-1.46,1.2c-.39,.52-.69,1.14-.88,1.87-.19,.73-.29,1.53-.29,2.41s.1,1.7,.29,2.43c.19,.73,.48,1.35,.87,1.86,.39,.51,.87,.91,1.45,1.19s1.26,.42,2.05,.42Z"/><path d="M113.76,70.4c-.97,0-1.86-.16-2.67-.49-.81-.33-1.5-.81-2.08-1.44-.58-.63-1.03-1.42-1.35-2.35-.32-.93-.48-2-.48-3.2s.16-2.27,.49-3.2c.33-.93,.78-1.72,1.36-2.36,.58-.64,1.27-1.13,2.08-1.46s1.69-.5,2.65-.5,1.86,.16,2.67,.49c.81,.33,1.5,.81,2.07,1.44,.57,.63,1.02,1.41,1.34,2.34s.48,1.99,.48,3.19-.16,2.27-.47,3.21c-.31,.94-.76,1.73-1.33,2.37-.57,.64-1.26,1.13-2.07,1.46-.81,.33-1.7,.5-2.69,.5Zm0-1.6c.76,0,1.43-.14,2.01-.42s1.06-.68,1.45-1.19c.39-.51,.68-1.13,.88-1.86s.3-1.54,.3-2.43-.1-1.68-.3-2.41-.5-1.35-.89-1.87c-.39-.52-.88-.92-1.45-1.2s-1.24-.42-2-.42-1.45,.14-2.03,.42-1.07,.68-1.46,1.2c-.39,.52-.69,1.14-.88,1.87s-.29,1.53-.29,2.41,.1,1.7,.29,2.43,.48,1.35,.87,1.86c.39,.51,.87,.91,1.45,1.19s1.26,.42,2.05,.42Z"/><path d="M123.76,55.76h1.84v12.64h7.4l-.28,1.64h-8.96v-14.28Z"/></g></g></g></svg>